<?xml version="1.0" standalone="no"?>
<!DOCTYPE svg PUBLIC "-//W3C//DTD SVG 20010904//EN"
 "http://www.w3.org/TR/2001/REC-SVG-20010904/DTD/svg10.dtd">
<svg version="1.0" xmlns="http://www.w3.org/2000/svg"
 width="144.000000pt" height="130.000000pt" viewBox="0 0 144.000000 130.000000"
 preserveAspectRatio="xMidYMid meet">

<g transform="translate(0.000000,130.000000) scale(0.100000,-0.100000)"
fill="#000000" stroke="none">
<path d="M395 1094 c-25 -21 -26 -23 -4 -10 14 9 28 14 31 11 2 -3 5 2 5 10 0
8 -1 15 -1 15 -1 0 -14 -12 -31 -26z"/>
<path d="M448 1103 c7 -3 16 -2 19 1 4 3 -2 6 -13 5 -11 0 -14 -3 -6 -6z"/>
<path d="M337 1054 c-10 -13 -16 -25 -15 -28 2 -2 -6 -14 -17 -27 -11 -13 -13
-19 -6 -12 7 6 19 10 25 9 6 -2 8 -1 4 1 -4 3 4 15 19 27 19 16 24 27 17 38
-8 14 -11 13 -27 -8z m10 -19 c-23 -22 -33 -18 -12 5 10 11 20 18 23 16 2 -3
-3 -12 -11 -21z"/>
<path d="M406 1071 c8 -8 43 -8 38 0 -2 4 -13 7 -24 6 -10 -1 -17 -3 -14 -6z"/>
<path d="M359 1013 c-13 -17 -13 -17 6 -3 11 8 22 16 24 17 2 2 0 3 -6 3 -6 0
-17 -8 -24 -17z"/>
<path d="M284 955 c-3 -8 -4 -20 -2 -27 3 -7 7 -1 10 15 6 29 1 36 -8 12z"/>
</g>
</svg>
